<?xml version="1.0" encoding="UTF-8"?>
<svg version="1.1" xmlns="http://www.w3.org/2000/svg" width="270" height="100">
<path d="M0 0 C0.82564453 -0.020625 1.65128906 -0.04125 2.50195312 -0.0625 C8.28906799 -0.09898299 12.50913381 0.92557191 17.8125 3.25 C18.1425 2.59 18.4725 1.93 18.8125 1.25 C23.90282841 1.22531916 28.99312215 1.20714918 34.08349609 1.19506836 C35.81592414 1.19003318 37.54834792 1.18320468 39.28076172 1.17456055 C41.76791433 1.16245935 44.25501087 1.15676362 46.7421875 1.15234375 C47.51932098 1.14718246 48.29645447 1.14202118 49.09713745 1.13670349 C54.58475659 1.13612829 54.58475659 1.13612829 56.8125 2.25 C57.2265625 5.41015625 57.2265625 5.41015625 57.4375 9.3125 C57.54964844 11.24802734 57.54964844 11.24802734 57.6640625 13.22265625 C57.71304688 14.22167969 57.76203125 15.22070312 57.8125 16.25 C58.06902344 15.74210937 58.32554687 15.23421875 58.58984375 14.7109375 C62.63553967 7.43685797 68.8182517 2.69175785 76.8125 0.25 C79.92072233 -0.05837598 83.00346607 -0.07464605 86.125 -0.0625 C86.94162109 -0.07861328 87.75824219 -0.09472656 88.59960938 -0.11132812 C94.33100562 -0.11589497 98.55834733 0.95848808 103.8125 3.25 C104.1425 2.59 104.4725 1.93 104.8125 1.25 C108.10409316 1.19209647 111.39555603 1.15643739 114.6875 1.125 C115.62464844 1.10824219 116.56179687 1.09148438 117.52734375 1.07421875 C118.42324219 1.06777344 119.31914062 1.06132812 120.2421875 1.0546875 C121.06960449 1.04421387 121.89702148 1.03374023 122.74951172 1.02294922 C124.8125 1.25 124.8125 1.25 126.8125 3.25 C126.98796482 6.26308951 127.04377445 9.18310454 127.0078125 12.1953125 C127.0049826 13.0803244 127.00215271 13.9653363 126.99923706 14.87716675 C126.9880224 17.70991412 126.9629157 20.54234784 126.9375 23.375 C126.92747185 25.29296419 126.91834572 27.21093333 126.91015625 29.12890625 C126.88807889 33.83605876 126.85354045 38.54297616 126.8125 43.25 C131.7625 43.25 136.7125 43.25 141.8125 43.25 C141.8125 49.85 141.8125 56.45 141.8125 63.25 C137.34644391 65.48302804 131.2338919 64.43584401 126.2644043 64.43530273 C124.01917346 64.4374814 121.77444024 64.45561827 119.52929688 64.47460938 C118.09635584 64.47754501 116.66341248 64.47952867 115.23046875 64.48046875 C113.27790161 64.48663208 113.27790161 64.48663208 111.28588867 64.49291992 C107.95972779 64.26029674 105.85697368 63.4687817 102.8125 62.25 C100.99704293 62.98963066 99.18303812 63.73315837 97.37890625 64.5 C89.09840555 66.91987235 78.48370882 66.38401006 70.8125 62.25 C65.27951945 58.68730033 61.04067255 55.00456845 57.8125 49.25 C57.77511719 50.16523437 57.73773438 51.08046875 57.69921875 52.0234375 C57.63347656 53.21195313 57.56773437 54.40046875 57.5 55.625 C57.44199219 56.80835938 57.38398438 57.99171875 57.32421875 59.2109375 C57.15535156 60.21382812 56.98648438 61.21671875 56.8125 62.25 C53.06928287 64.74547809 51.09434702 64.49453197 46.625 64.48046875 C45.92608643 64.48001053 45.22717285 64.47955231 44.50708008 64.4790802 C43.03106994 64.47606251 41.55506286 64.46819061 40.07910156 64.45581055 C37.82084864 64.43756744 35.56300639 64.43530087 33.3046875 64.43554688 C22.25557482 64.39769161 22.25557482 64.39769161 18.8125 63.25 C18.8125 62.59 18.8125 61.93 18.8125 61.25 C17.905 61.724375 16.9975 62.19875 16.0625 62.6875 C8.08571667 66.52249198 -2.57341621 66.63656311 -11.0625 64.1875 C-19.07037316 60.95413234 -25.66371828 55.17497095 -29.1875 47.25 C-32.51639096 37.42800722 -32.9614415 25.83795183 -28.37109375 16.35546875 C-27.98050781 15.66066406 -27.58992188 14.96585938 -27.1875 14.25 C-26.84847656 13.60675781 -26.50945312 12.96351562 -26.16015625 12.30078125 C-20.38736976 2.83012441 -10.35754515 0.06320394 0 0 Z M53.8125 21.25 C54.4725 21.91 55.1325 22.57 55.8125 23.25 C55.8125 22.59 55.8125 21.93 55.8125 21.25 C55.1525 21.25 54.4925 21.25 53.8125 21.25 Z M-5.9375 26.5625 C-7.82096801 29.10518181 -8.06199455 31.11236374 -8.1875 34.25 C-6.59562216 37.85267091 -4.74147912 40.47301044 -1.1875 42.25 C2.63423548 42.1110278 5.0893399 41.72005406 8.3125 39.625 C11.75971791 37.72903015 14.06076087 38.44080136 17.8125 39.25 C17.8125 34.96 17.8125 30.67 17.8125 26.25 C16.636875 26.3325 15.46125 26.415 14.25 26.5 C9.43216635 26.53422972 6.81311762 24.81039528 2.8125 22.25 C-0.67163465 22.25 -3.226194 24.5290205 -5.9375 26.5625 Z M80.0625 26.5625 C78.17903199 29.10518181 77.93800545 31.11236374 77.8125 34.25 C79.40437784 37.85267091 81.25852088 40.47301044 84.8125 42.25 C88.4358318 42.12059529 90.88235031 42.00012072 93.75 39.6875 C96.99311825 37.42714486 99.92529434 38.05563972 103.8125 38.25 C103.8125 34.62 103.8125 30.99 103.8125 27.25 C102.636875 27.1675 101.46125 27.085 100.25 27 C95.64958374 26.45252595 92.71778389 24.67127601 88.8125 22.25 C85.32836535 22.25 82.773806 24.5290205 80.0625 26.5625 Z M54.8125 41.25 C50.1925 41.58 45.5725 41.91 40.8125 42.25 C40.8125 42.58 40.8125 42.91 40.8125 43.25 C45.7625 43.58 50.7125 43.91 55.8125 44.25 C55.4825 43.26 55.1525 42.27 54.8125 41.25 Z " fill="#000203" transform="translate(128.1875,25.75)"/>
<path d="M0 0 C0.495 0.99 0.495 0.99 1 2 C-2.95065291 6.25217045 -7.24485448 9.41029245 -12.0625 12.625 C-13.470531 13.57481125 -14.87809751 14.52531152 -16.28515625 15.4765625 C-16.93371582 15.91387695 -17.58227539 16.35119141 -18.25048828 16.80175781 C-20.21157223 18.14490602 -22.12035099 19.54510284 -24 21 C-23.30132812 21.31453125 -22.60265625 21.6290625 -21.8828125 21.953125 C-20.97273438 22.38109375 -20.06265625 22.8090625 -19.125 23.25 C-17.76761719 23.87648438 -17.76761719 23.87648438 -16.3828125 24.515625 C-13.76458248 26.14665354 -13.01240899 27.13245051 -12 30 C-11.59556233 33.15461384 -11.7097171 34.54564415 -13.4375 37.25 C-15.596011 41.04897936 -15.72807153 44.69602872 -16 49 C-14.515 49.495 -14.515 49.495 -13 50 C-13.22711182 51.87361145 -13.22711182 51.87361145 -14 54 C-15.89349365 55.13749695 -15.89349365 55.13749695 -18.36621094 56.0222168 C-19.27495972 56.35289154 -20.1837085 56.68356628 -21.11999512 57.02426147 C-22.07039673 57.34625519 -23.02079834 57.6682489 -24 58 C-25.32650574 58.45289902 -25.32650574 58.45289902 -26.67980957 58.91494751 C-29.49243223 59.85050397 -32.31416237 60.75169236 -35.140625 61.64453125 C-36.18410095 61.97740646 -37.2275769 62.31028168 -38.30267334 62.65324402 C-41.61736431 63.70977281 -44.93363605 64.76123589 -48.25 65.8125 C-50.42719056 66.50552259 -52.60427471 67.19887959 -54.78125 67.89257812 C-58.01399718 68.92256773 -61.24714488 69.95118129 -64.48181152 70.97512817 C-69.77505852 72.65073674 -75.06195141 74.34236893 -80.33789062 76.07177734 C-81.34237244 76.39861008 -82.34685425 76.72544281 -83.3817749 77.06217957 C-85.27259452 77.67807859 -87.16160132 78.29958202 -89.04840088 78.9276886 C-90.31366608 79.33799568 -90.31366608 79.33799568 -91.60449219 79.7565918 C-92.33609558 79.99774216 -93.06769897 80.23889252 -93.82147217 80.48735046 C-96.27398203 81.06447325 -98.48914768 81.08768597 -101 81 C-101.23510742 78.69946289 -101.23510742 78.69946289 -101 76 C-99.42700195 74.30249023 -99.42700195 74.30249023 -97.23828125 72.80859375 C-96.44873047 72.25623047 -95.65917969 71.70386719 -94.84570312 71.13476562 C-94.00974609 70.57466797 -93.17378906 70.01457031 -92.3125 69.4375 C-90.68295437 68.31212318 -89.05403153 67.18584394 -87.42578125 66.05859375 C-86.27456787 65.27137939 -86.27456787 65.27137939 -85.10009766 64.46826172 C-82.64337271 62.75066769 -80.30290865 60.91830884 -78 59 C-78.77085938 58.67386719 -79.54171875 58.34773438 -80.3359375 58.01171875 C-81.33882812 57.57472656 -82.34171875 57.13773438 -83.375 56.6875 C-84.37273437 56.25824219 -85.37046875 55.82898438 -86.3984375 55.38671875 C-89 54 -89 54 -91 51 C-90.67 50.34 -90.34 49.68 -90 49 C-89.9511855 47.43956325 -89.96315321 45.87696745 -90.0078125 44.31640625 C-90.02457031 43.38892578 -90.04132813 42.46144531 -90.05859375 41.50585938 C-90.10278083 39.54733196 -90.15483516 37.58896588 -90.21484375 35.63085938 C-90.22902344 34.70208984 -90.24320313 33.77332031 -90.2578125 32.81640625 C-90.2798877 31.96506104 -90.30196289 31.11371582 -90.32470703 30.23657227 C-90 28 -90 28 -88.9309082 26.33569336 C-86.13142214 24.39916684 -83.09681656 23.67094649 -79.84765625 22.8125 C-72.56502051 20.77855399 -65.36757033 18.54622866 -58.18359375 16.1875 C-57.14876862 15.84847656 -56.11394348 15.50945313 -55.04776001 15.16015625 C-51.84366024 14.10882688 -48.64050755 13.05465179 -45.4375 12 C-38.20745 9.62332673 -30.97514985 7.25385483 -23.73846436 4.89746094 C-21.18380716 4.06023805 -18.63473287 3.20787648 -16.08642578 2.3515625 C-14.65281661 1.87976039 -13.21907116 1.40837209 -11.78515625 0.9375 C-10.57867432 0.53402344 -9.37219238 0.13054688 -8.12915039 -0.28515625 C-4.92535373 -1.01705269 -3.08740252 -1.07718942 0 0 Z " fill="#F8F4F3" transform="translate(101,10)"/>
<path d="M0 0 C1.30710937 -0.01417969 2.61421875 -0.02835938 3.9609375 -0.04296875 C7.625 0.1875 7.625 0.1875 12.625 2.1875 C12.625 8.1275 12.625 14.0675 12.625 20.1875 C10.645 18.8675 8.665 17.5475 6.625 16.1875 C1.81635086 14.58461695 -2.54571411 14.41513485 -7.1875 16.375 C-10.34622441 18.9922288 -12.09858868 21.13902708 -12.66015625 25.30078125 C-12.85357415 30.30441824 -12.29027123 33.96538305 -9.375 38.1875 C-5.90187705 40.90967745 -2.77923349 42.01478496 1.625 42.1875 C5.72203742 41.10482281 9.10035629 39.53726247 12.625 37.1875 C12.70571788 39.97974073 12.76535408 42.76966566 12.8125 45.5625 C12.83763672 46.3565625 12.86277344 47.150625 12.88867188 47.96875 C12.91504405 50.04336148 12.77986462 52.11850865 12.625 54.1875 C7.0312221 57.91668527 0.17349035 58.05334661 -6.375 57.1875 C-15.83979824 53.99327793 -22.50896508 48.82493662 -27.03125 39.9296875 C-28.46729943 35.93045682 -28.87482766 32.44656177 -28.8125 28.25 C-28.80637695 27.54705811 -28.80025391 26.84411621 -28.79394531 26.11987305 C-28.62637798 20.56501595 -27.6356037 16.64517848 -24.375 12.1875 C-23.83875 11.32125 -23.3025 10.455 -22.75 9.5625 C-16.24613324 3.05863324 -9.08236127 0.04460885 0 0 Z " fill="#3280BD" transform="translate(126.375,25.8125)"/>
<path d="M0 0 C0 5.61 0 11.22 0 17 C-1.175625 16.34 -2.35125 15.68 -3.5625 15 C-7.55202992 13.01228368 -10.49958809 12.49051941 -15 13 C-17.70465742 13.86454438 -17.70465742 13.86454438 -20 15 C-20.99 15.33 -21.98 15.66 -23 16 C-25.57825878 20.34233058 -25.55271341 25.10330461 -25 30 C-23.71929492 33.63989866 -22.71761703 35.43754341 -19.6875 37.8125 C-14.97646103 39.89412187 -11.73191116 40.46266048 -6.875 38.6875 C-4.17086961 37.57435396 -1.62437441 36.3121872 1 35 C0.67 40.61 0.34 46.22 0 52 C-7.93999923 55.52888855 -14.80669864 56.39738637 -23.125 53.4375 C-30.96425452 49.93695239 -36.35466255 44.72811539 -40 37 C-42.5825115 28.85112926 -41.73147487 19.7638256 -38.203125 12.0859375 C-36.52388706 9.17453146 -34.58046152 7.13989492 -32 5 C-31.21625 4.29875 -30.4325 3.5975 -29.625 2.875 C-20.82674022 -3.40947127 -10.01260742 -4.00504297 0 0 Z " fill="#3281BE" transform="translate(225,28)"/>
<path d="M0 0 C10.23 0 20.46 0 31 0 C31 3.96 31 7.92 31 12 C25.72 12 20.44 12 15 12 C15 14.97 15 17.94 15 21 C20.28 21 25.56 21 31 21 C30.67 24.96 30.34 28.92 30 33 C25.05 33 20.1 33 15 33 C15 35.97 15 38.94 15 42 C20.28 42 25.56 42 31 42 C31 45.96 31 49.92 31 54 C20.77 54 10.54 54 0 54 C0 36.18 0 18.36 0 0 Z " fill="#3282C0" transform="translate(147,27)"/>
<path d="M0 0 C6.6 0 13.2 0 20 0 C22 2 22 2 22.22705078 5.89892578 C22.22673341 7.58108793 22.21539396 9.26327019 22.1953125 10.9453125 C22.1924826 11.8303244 22.18965271 12.7153363 22.18673706 13.62716675 C22.1755224 16.45991412 22.1504157 19.29234784 22.125 22.125 C22.11497185 24.04296419 22.10584572 25.96093333 22.09765625 27.87890625 C22.07557889 32.58605876 22.04104045 37.29297616 22 42 C25.3 42 28.6 42 32 42 C31.67 45.96 31.34 49.92 31 54 C15.655 54.495 15.655 54.495 0 55 C0 36.85 0 18.7 0 0 Z " fill="#3281BE" transform="translate(233,27)"/>
<path d="M0 0 C23.43 0 46.86 0 71 0 C70 2 70 2 67.23828125 2.9375 C65.93116853 3.29709417 64.62239435 3.65067432 63.3125 4 C54.61530542 6.43203636 46.05846299 9.2510908 37.5 12.125 C36.52639023 12.45153564 36.52639023 12.45153564 35.53311157 12.78466797 C30.48363839 14.47874029 25.43501121 16.17534469 20.39038086 17.88378906 C15.47884439 19.53875756 10.54069282 21.05862544 5.5625 22.5 C4.08587727 22.93078319 2.60931455 23.36177212 1.1328125 23.79296875 C0.07562012 24.10113525 0.07562012 24.10113525 -1.00292969 24.41552734 C-5.00866864 25.58786708 -9.00471992 26.7925812 -13 28 C-10.69776067 25.54674116 -8.23593614 23.6635343 -5.47265625 21.75 C-4.16071289 20.83734375 -4.16071289 20.83734375 -2.82226562 19.90625 C-1.45618164 18.96265625 -1.45618164 18.96265625 -0.0625 18 C1.7386766 16.75056975 3.53947182 15.50058948 5.33984375 14.25 C6.13769287 13.69828125 6.93554199 13.1465625 7.75756836 12.578125 C9.87037951 11.09122121 11.94216354 9.56182701 14 8 C11.02342082 5.02342082 7.37678931 4.31268929 3.43359375 3 C1 2 1 2 0 0 Z " fill="#D93928" transform="translate(14,61)"/>
<path d="M0 0 C-2.87366157 2.08518434 -5.74916889 4.1678091 -8.625 6.25 C-9.43324219 6.83652344 -10.24148437 7.42304688 -11.07421875 8.02734375 C-14.5175878 10.51888721 -17.95011949 12.99440231 -21.5234375 15.296875 C-24.0830453 16.76311648 -24.0830453 16.76311648 -25 19 C-24.40832031 19.19335938 -23.81664062 19.38671875 -23.20703125 19.5859375 C-19.0853355 20.94414719 -15.0049476 22.32050585 -11 24 C-11 24.33 -11 24.66 -11 25 C-34.1 25 -57.2 25 -81 25 C-78.40532169 22.40532169 -75.69394961 21.92989093 -72.25 21 C-63.86735911 18.64070266 -55.62446031 15.90996945 -47.375 13.125 C-36.99882693 9.6260863 -26.59313479 6.26974786 -16.09326172 3.15673828 C-15.22588379 2.89876465 -14.35850586 2.64079102 -13.46484375 2.375 C-12.27930908 2.02308594 -12.27930908 2.02308594 -11.06982422 1.6640625 C-8.83522305 0.98518296 -8.83522305 0.98518296 -6.12890625 -0.25 C-3.60900202 -1.13774608 -2.50756566 -0.7345295 0 0 Z " fill="#D83221" transform="translate(96,14)"/>
<path d="M0 0 C4.95 0 9.9 0 15 0 C15.99 1.98 16.98 3.96 18 6 C18 4.35 18 2.7 18 1 C19.32 1 20.64 1 22 1 C22 5.95 22 10.9 22 16 C20.35 16 18.7 16 17 16 C16.34 14.02 15.68 12.04 15 10 C15 11.98 15 13.96 15 16 C14.195625 15.814375 13.39125 15.62875 12.5625 15.4375 C11.716875 15.293125 10.87125 15.14875 10 15 C9.67 15.33 9.34 15.66 9 16 C7.31391034 16.07205511 5.62499341 16.08386068 3.9375 16.0625 C3.01839844 16.05347656 2.09929688 16.04445313 1.15234375 16.03515625 C0.44207031 16.02355469 -0.26820312 16.01195313 -1 16 C-1 15.34 -1 14.68 -1 14 C-0.34 14 0.32 14 1 14 C0.67 9.38 0.34 4.76 0 0 Z " fill="#E5C8C5" transform="translate(14,42)"/>
<path d="M0 0 C1.65 0 3.3 0 5 0 C7 2 7 2 7.22705078 5.89892578 C7.22673341 7.58108793 7.21539396 9.26327019 7.1953125 10.9453125 C7.1924826 11.8303244 7.18965271 12.7153363 7.18673706 13.62716675 C7.1755224 16.45991412 7.1504157 19.29234784 7.125 22.125 C7.11497185 24.04296419 7.10584572 25.96093333 7.09765625 27.87890625 C7.07557889 32.58605876 7.04104045 37.29297616 7 42 C4.69 42 2.38 42 0 42 C0 28.14 0 14.28 0 0 Z " fill="#000000" transform="translate(248,27)"/>
<path d="M0 0 C0.66 0 1.32 0 2 0 C1.62276896 2.50237731 1.30283111 3.71983099 -0.58227539 5.46386719 C-1.24735107 5.90375977 -1.91242676 6.34365234 -2.59765625 6.796875 C-3.31630859 7.28027344 -4.03496094 7.76367188 -4.77539062 8.26171875 C-5.53013672 8.75285156 -6.28488281 9.24398437 -7.0625 9.75 C-7.82111328 10.25660156 -8.57972656 10.76320313 -9.36132812 11.28515625 C-11.23433977 12.53383068 -13.1137518 13.77145051 -15 15 C-9.56985379 13.4775291 -4.18848446 11.82818033 1.1875 10.125 C2.01886475 9.86323975 2.85022949 9.60147949 3.70678711 9.33178711 C9.45918573 7.51315745 15.16665131 5.59818221 20.84765625 3.56640625 C23 3 23 3 25 4 C22.35099254 7.9735112 19.24325848 8.54424014 14.88671875 9.91796875 C14.08015335 10.18007645 13.27358795 10.44218414 12.44258118 10.7122345 C10.73525818 11.26436321 9.02623066 11.81124451 7.31567383 12.35327148 C4.70392937 13.18228503 2.09889813 14.03018051 -0.50585938 14.88085938 C-2.16630025 15.41520245 -3.82709673 15.94844203 -5.48828125 16.48046875 C-6.26553055 16.73354294 -7.04277985 16.98661713 -7.84358215 17.24736023 C-11.67280831 18.45031338 -14.9328743 19.3254306 -19 19 C-19.24389648 16.70605469 -19.24389648 16.70605469 -19 14 C-17.36352539 12.25488281 -17.36352539 12.25488281 -15.09765625 10.703125 C-13.88625977 9.85427734 -13.88625977 9.85427734 -12.65039062 8.98828125 C-11.79638672 8.41464844 -10.94238281 7.84101562 -10.0625 7.25 C-8.38661245 6.08869506 -6.71082578 4.92724451 -5.03515625 3.765625 C-4.2862915 3.25805664 -3.53742676 2.75048828 -2.76586914 2.22753906 C-1.05991743 1.11891711 -1.05991743 1.11891711 0 0 Z " fill="#F7F1F0" transform="translate(19,72)"/>
<path d="M0 0 C2.3125 -0.3125 2.3125 -0.3125 5 0 C6.8125 2.5 6.8125 2.5 8 5 C8 3.35 8 1.7 8 0 C9.32 0 10.64 0 12 0 C12 4.95 12 9.9 12 15 C10.35 15 8.7 15 7 15 C6.34 13.02 5.68 11.04 5 9 C5 10.98 5 12.96 5 15 C3.68 15 2.36 15 1 15 C1.01160156 14.16855469 1.02320312 13.33710937 1.03515625 12.48046875 C1.04417969 11.39378906 1.05320312 10.30710937 1.0625 9.1875 C1.07410156 8.10855469 1.08570312 7.02960937 1.09765625 5.91796875 C1.13624766 2.93487831 1.13624766 2.93487831 0 0 Z " fill="#D13222" transform="translate(24,43)"/>
<path d="M0 0 C6.8359375 -0.1953125 6.8359375 -0.1953125 9 0 C11.68092691 2.68092691 11.38670257 4.39167363 11.625 8.125 C11.69976562 9.22070312 11.77453125 10.31640625 11.8515625 11.4453125 C11.92503906 12.70988281 11.92503906 12.70988281 12 14 C11.01 14 10.02 14 9 14 C8.896875 13.360625 8.79375 12.72125 8.6875 12.0625 C8.460625 11.381875 8.23375 10.70125 8 10 C7.01 9.67 6.02 9.34 5 9 C5.33 10.98 5.66 12.96 6 15 C4.02 15 2.04 15 0 15 C0 10.05 0 5.1 0 0 Z " fill="#D5301F" transform="translate(49,43)"/>
<path d="M0 0 C1.9453125 -0.29296875 1.9453125 -0.29296875 4.125 -0.1875 C5.40375 -0.125625 6.6825 -0.06375 8 0 C8 1.32 8 2.64 8 4 C7.01 4 6.02 4 5 4 C5 3.34 5 2.68 5 2 C4.01 2.495 4.01 2.495 3 3 C2.53348793 5.12576782 2.53348793 5.12576782 2.375 7.5625 C2.30023438 8.38878906 2.22546875 9.21507812 2.1484375 10.06640625 C2.09945312 10.70449219 2.05046875 11.34257813 2 12 C2.99 12 3.98 12 5 12 C4.67 10.35 4.34 8.7 4 7 C5.32 7 6.64 7 8 7 C8 9.31 8 11.62 8 14 C5.69 14.33 3.38 14.66 1 15 C-1.97760844 10.90578839 -2.46531409 8.02539212 -2 3 C-1.34 2.01 -0.68 1.02 0 0 Z " fill="#D24C3E" transform="translate(64,43)"/>
<path d="M0 0 C2.97 0 5.94 0 9 0 C9 1.32 9 2.64 9 4 C8.34 4 7.68 4 7 4 C7 3.34 7 2.68 7 2 C6.34 2 5.68 2 5 2 C5 3.32 5 4.64 5 6 C5.66 6 6.32 6 7 6 C7 6.66 7 7.32 7 8 C6.34 8 5.68 8 5 8 C5 9.32 5 10.64 5 12 C5.66 12 6.32 12 7 12 C7 11.34 7 10.68 7 10 C7.66 10 8.32 10 9 10 C9 11.65 9 13.3 9 15 C6.03 15 3.06 15 0 15 C0 10.05 0 5.1 0 0 Z " fill="#D23626" transform="translate(38,43)"/>
<path d="M0 0 C1.65 0 3.3 0 5 0 C5 1.32 5 2.64 5 4 C5.66 4.33 6.32 4.66 7 5 C7 3.35 7 1.7 7 0 C8.65 0 10.3 0 12 0 C12 0.66 12 1.32 12 2 C11.34 2 10.68 2 10 2 C9.1276588 4.99480917 8.89170234 7.63575911 8.9375 10.75 C8.95103516 11.94882812 8.95103516 11.94882812 8.96484375 13.171875 C8.97644531 13.77515625 8.98804687 14.3784375 9 15 C7.02 15 5.04 15 3 15 C3.020625 13.783125 3.04125 12.56625 3.0625 11.3125 C3.06824116 8.08022678 2.78766315 5.15065259 2 2 C1.34 2 0.68 2 0 2 C0 1.34 0 0.68 0 0 Z " fill="#D33323" transform="translate(74,43)"/>
<path d="M0 0 C6.6 0 13.2 0 20 0 C20 0.33 20 0.66 20 1 C17.03 1 14.06 1 11 1 C11.33 1.99 11.66 2.98 12 4 C12.06802967 5.72795352 12.08495645 7.45835365 12.0625 9.1875 C12.05347656 10.08855469 12.04445313 10.98960938 12.03515625 11.91796875 C12.02355469 12.60503906 12.01195312 13.29210938 12 14 C11.01 14.495 11.01 14.495 10 15 C10 13.68 10 12.36 10 11 C9.01 11 8.02 11 7 11 C7 11.66 7 12.32 7 13 C6.34 13 5.68 13 5 13 C5 11.68 5 10.36 5 9 C5.66 9 6.32 9 7 9 C7 8.34 7 7.68 7 7 C6.34 7 5.68 7 5 7 C5 5.68 5 4.36 5 3 C5.66 3 6.32 3 7 3 C7 3.66 7 4.32 7 5 C7.66 5 8.32 5 9 5 C9 3.68 9 2.36 9 1 C6.03 1 3.06 1 0 1 C0 0.67 0 0.34 0 0 Z " fill="#EDDEDC" transform="translate(38,42)"/>
<path d="M0 0 C2.64 0 5.28 0 8 0 C7.67 1.32 7.34 2.64 7 4 C7 3.34 7 2.68 7 2 C6.01 2 5.02 2 4 2 C4 3.32 4 4.64 4 6 C4.99 6 5.98 6 7 6 C7 6.66 7 7.32 7 8 C6.01 8 5.02 8 4 8 C4 9.32 4 10.64 4 12 C4.99 12 5.98 12 7 12 C7.33 11.34 7.66 10.68 8 10 C8 11.32 8 12.64 8 14 C5.36 14 2.72 14 0 14 C0 9.38 0 4.76 0 0 Z " fill="#D82311" transform="translate(14,43)"/>
<path d="M0 0 C1.32 0 2.64 0 4 0 C4 4.95 4 9.9 4 15 C2.35 15 0.7 15 -1 15 C-1.33 13.02 -1.66 11.04 -2 9 C-0.68 8.67 0.64 8.34 2 8 C2 6.35 2 4.7 2 3 C1.34 3 0.68 3 0 3 C0 2.01 0 1.02 0 0 Z " fill="#D64738" transform="translate(32,43)"/>
<path d="M0 0 C2.97 0 5.94 0 9 0 C9 0.33 9 0.66 9 1 C7.35 1 5.7 1 4 1 C4 1.66 4 2.32 4 3 C4.66 3 5.32 3 6 3 C4.49336217 6.01327566 1.96833589 6.61056618 -1 8 C-1 9.65 -1 11.3 -1 13 C-1.99 13 -2.98 13 -4 13 C-4 10.03 -4 7.06 -4 4 C-3.01 3.67 -2.02 3.34 -1 3 C-1 3.66 -1 4.32 -1 5 C-0.01 5 0.98 5 2 5 C2 3.68 2 2.36 2 1 C1.34 0.67 0.68 0.34 0 0 Z " fill="#F0E3E1" transform="translate(70,42)"/>
<path d="M0 0 C1.98 0 3.96 0 6 0 C6.33 3.96 6.66 7.92 7 12 C6.01 12 5.02 12 4 12 C3.896875 11.38125 3.79375 10.7625 3.6875 10.125 C3.12474627 7.63473516 3.12474627 7.63473516 0 6 C-0.1875 2.875 -0.1875 2.875 0 0 Z " fill="#D33525" transform="translate(54,45)"/>
<path d="M0 0 C1.9453125 -0.29296875 1.9453125 -0.29296875 4.125 -0.1875 C5.40375 -0.125625 6.6825 -0.06375 8 0 C8 1.32 8 2.64 8 4 C7.01 4 6.02 4 5 4 C5 3.34 5 2.68 5 2 C1.68539295 3.70892499 1.68539295 3.70892499 1.3125 7.125 C1.209375 8.07375 1.10625 9.0225 1 10 C0.01 10 -0.98 10 -2 10 C-2.25 3.375 -2.25 3.375 0 0 Z " fill="#D03120" transform="translate(64,43)"/>
<path d="M0 0 C0.33 0.99 0.66 1.98 1 3 C1.763125 2.814375 2.52625 2.62875 3.3125 2.4375 C6 2 6 2 9 3 C8 5 8 5 5.25 6.125 C2.29813104 6.91973395 0.02780163 7.17810598 -3 7 C-3.1875 4.625 -3.1875 4.625 -3 2 C-2.01 1.34 -1.02 0.68 0 0 Z " fill="#FBF8F7" transform="translate(3,84)"/>
<path d="M0 0 C0.33 0 0.66 0 1 0 C1 2.97 1 5.94 1 9 C1.66 9 2.32 9 3 9 C3.33 7.68 3.66 6.36 4 5 C4 6.32 4 7.64 4 9 C4.66 9 5.32 9 6 9 C6 8.34 6 7.68 6 7 C6.66 7 7.32 7 8 7 C8 8.65 8 10.3 8 12 C5.03 12 2.06 12 -1 12 C-0.67 8.04 -0.34 4.08 0 0 Z " fill="#CF5549" transform="translate(39,46)"/>
<path d="M0 0 C1 4 1 4 0 6 C-2.43359375 7.10546875 -2.43359375 7.10546875 -5.4375 8.1875 C-6.42621094 8.55230469 -7.41492188 8.91710937 -8.43359375 9.29296875 C-11 10 -11 10 -13 9 C-8.71 6.03 -4.42 3.06 0 0 Z " fill="#D73424" transform="translate(14,79)"/>
<path d="M0 0 C-2.28051054 2.64480934 -4.04069498 3.56210968 -7.4375 4.3125 C-8.19933594 4.49425781 -8.96117188 4.67601563 -9.74609375 4.86328125 C-12.41887984 5.02540866 -13.74105736 4.37388994 -16 3 C-15.30132812 2.79503906 -14.60265625 2.59007813 -13.8828125 2.37890625 C-12.97273438 2.10949219 -12.06265625 1.84007813 -11.125 1.5625 C-10.22007813 1.29566406 -9.31515625 1.02882813 -8.3828125 0.75390625 C-3.07978723 -0.92393617 -3.07978723 -0.92393617 0 0 Z " fill="#F2E4E3" transform="translate(73,67)"/>
<path d="M0 0 C0.66 0 1.32 0 2 0 C2 3.3 2 6.6 2 10 C2.66 10 3.32 10 4 10 C4.33 9.01 4.66 8.02 5 7 C5.33 8.98 5.66 10.96 6 13 C4.02 13 2.04 13 0 13 C0 8.71 0 4.42 0 0 Z " fill="#CD564B" transform="translate(49,45)"/>
<path d="M0 0 C0.33 1.32 0.66 2.64 1 4 C1.99 4 2.98 4 4 4 C4 4.66 4 5.32 4 6 C3.01 6 2.02 6 1 6 C1 7.32 1 8.64 1 10 C0.34 10 -0.32 10 -1 10 C-1.02689216 8.52093108 -1.04634621 7.04172517 -1.0625 5.5625 C-1.07410156 4.73878906 -1.08570313 3.91507813 -1.09765625 3.06640625 C-1 1 -1 1 0 0 Z " fill="#DB2513" transform="translate(41,45)"/>
<path d="M0 0 C0.33 0 0.66 0 1 0 C1.33 2.31 1.66 4.62 2 7 C0.02 7 -1.96 7 -4 7 C-3.67 5.02 -3.34 3.04 -3 1 C-2.67 1.99 -2.34 2.98 -2 4 C-1.34 4 -0.68 4 0 4 C0 2.68 0 1.36 0 0 Z " fill="#CF5548" transform="translate(81,51)"/>
<path d="M0 0 C2 0.3125 2 0.3125 4 1 C4.33 1.66 4.66 2.32 5 3 C3.35 4.65 1.7 6.3 0 8 C-0.66 7.67 -1.32 7.34 -2 7 C-0.68 5.35 0.64 3.7 2 2 C1.01 1.67 0.02 1.34 -1 1 C-0.67 0.67 -0.34 0.34 0 0 Z " fill="#FEFEFE" transform="translate(97,9)"/>
<path d="M0 0 C1.32 1.65 2.64 3.3 4 5 C3.01 5.495 3.01 5.495 2 6 C1.67 6.99 1.34 7.98 1 9 C0.34 9 -0.32 9 -1 9 C-1.09765625 2.84765625 -1.09765625 2.84765625 -1 1 C-0.67 0.67 -0.34 0.34 0 0 Z " fill="#DD2613" transform="translate(52,46)"/>
<path d="M0 0 C0.33 1.32 0.66 2.64 1 4 C1.99 4 2.98 4 4 4 C4 4.66 4 5.32 4 6 C3.01 6 2.02 6 1 6 C1 7.32 1 8.64 1 10 C1.66 10.33 2.32 10.66 3 11 C2.01 11 1.02 11 0 11 C-1.125 3.375 -1.125 3.375 0 0 Z " fill="#D03727" transform="translate(17,45)"/>
<path d="M0 0 C0 2.64 0 5.28 0 8 C-0.99 8 -1.98 8 -3 8 C-3 5.69 -3 3.38 -3 1 C-1 0 -1 0 0 0 Z " fill="#D73828" transform="translate(65,45)"/>
<path d="M0 0 C1.98 0 3.96 0 6 0 C6 1.32 6 2.64 6 4 C4.02 4 2.04 4 0 4 C0 2.68 0 1.36 0 0 Z " fill="#DF8A82" transform="translate(54,45)"/>
<path d="M0 0 C-1.98 1.32 -3.96 2.64 -6 4 C-6 3.34 -6 2.68 -6 2 C-6.99 1.67 -7.98 1.34 -9 1 C-5.57367167 -0.61798838 -3.61944899 -1.34053666 0 0 Z " fill="#D14A3C" transform="translate(96,14)"/>
<path d="M0 0 C0.66 0.33 1.32 0.66 2 1 C1.67 1.99 1.34 2.98 1 4 C-0.84765625 4.73046875 -0.84765625 4.73046875 -3.0625 5.1875 C-3.79597656 5.34605469 -4.52945312 5.50460938 -5.28515625 5.66796875 C-6.13400391 5.83232422 -6.13400391 5.83232422 -7 6 C-4.83312509 3.72478134 -2.54379491 1.84205838 0 0 Z " fill="#CE574B" transform="translate(8,83)"/>
<path d="M0 0 C-1.37154504 2.95409701 -2.98863724 5.44008376 -5 8 C-5.66 7.67 -6.32 7.34 -7 7 C-5.84933177 3.5479953 -4.01648928 0 0 0 Z " fill="#EBD9D7" transform="translate(99,11)"/>
</svg>
